<mxfile host="app.diagrams.net" agent="Mozilla/5.0 (Windows NT 10.0; Win64; x64) AppleWebKit/537.36 (KHTML, like Gecko) Chrome/130.0.0.0 Safari/537.36" version="24.8.3" pages="4">
  <diagram name="Page-1" id="ThmkUUVYPYy3i6wsVlc3">
    <mxGraphModel dx="880" dy="468" grid="1" gridSize="10" guides="1" tooltips="1" connect="1" arrows="1" fold="1" page="1" pageScale="1" pageWidth="850" pageHeight="1100" math="0" shadow="0">
      <root>
        <mxCell id="0" />
        <mxCell id="1" parent="0" />
        <mxCell id="HONvHWcM4jDLqX-yx-rh-18" value="Mahasiswa" style="rounded=1;whiteSpace=wrap;html=1;" parent="1" vertex="1">
          <mxGeometry x="270" y="610" width="120" height="60" as="geometry" />
        </mxCell>
        <mxCell id="HONvHWcM4jDLqX-yx-rh-19" value="Dosen" style="rounded=1;whiteSpace=wrap;html=1;" parent="1" vertex="1">
          <mxGeometry x="200" y="450" width="120" height="60" as="geometry" />
        </mxCell>
        <mxCell id="HONvHWcM4jDLqX-yx-rh-20" value="Rektor" style="rounded=1;whiteSpace=wrap;html=1;" parent="1" vertex="1">
          <mxGeometry x="270" y="290" width="120" height="60" as="geometry" />
        </mxCell>
        <mxCell id="HONvHWcM4jDLqX-yx-rh-21" value="Fakultas \ Institusi" style="rounded=1;whiteSpace=wrap;html=1;" parent="1" vertex="1">
          <mxGeometry x="200" y="370" width="120" height="60" as="geometry" />
        </mxCell>
        <mxCell id="HONvHWcM4jDLqX-yx-rh-22" value="Universitas" style="rounded=1;whiteSpace=wrap;html=1;" parent="1" vertex="1">
          <mxGeometry x="270" y="120" width="120" height="60" as="geometry" />
        </mxCell>
        <mxCell id="HONvHWcM4jDLqX-yx-rh-23" value="Organisasi Mahasiswa" style="rounded=1;whiteSpace=wrap;html=1;" parent="1" vertex="1">
          <mxGeometry x="180" y="530" width="140" height="60" as="geometry" />
        </mxCell>
        <mxCell id="HONvHWcM4jDLqX-yx-rh-24" value="Mata Kuliah" style="rounded=1;whiteSpace=wrap;html=1;" parent="1" vertex="1">
          <mxGeometry x="340" y="450" width="120" height="60" as="geometry" />
        </mxCell>
        <mxCell id="HONvHWcM4jDLqX-yx-rh-25" value="Dekan" style="rounded=1;whiteSpace=wrap;html=1;" parent="1" vertex="1">
          <mxGeometry x="340" y="370" width="120" height="60" as="geometry" />
        </mxCell>
        <mxCell id="HONvHWcM4jDLqX-yx-rh-26" value="Kelas" style="rounded=1;whiteSpace=wrap;html=1;" parent="1" vertex="1">
          <mxGeometry x="340" y="540" width="140" height="60" as="geometry" />
        </mxCell>
      </root>
    </mxGraphModel>
  </diagram>
  <diagram id="PMEeTjda0bPDEJ7DCtxB" name="Page-2">
    <mxGraphModel dx="880" dy="468" grid="1" gridSize="10" guides="1" tooltips="1" connect="1" arrows="1" fold="1" page="1" pageScale="1" pageWidth="850" pageHeight="1100" math="0" shadow="0">
      <root>
        <mxCell id="0" />
        <mxCell id="1" parent="0" />
        <mxCell id="IZrYQHv6k2Q41Ur_gELw-1" value="Penumpang" style="rounded=1;whiteSpace=wrap;html=1;" parent="1" vertex="1">
          <mxGeometry x="250" y="420" width="120" height="60" as="geometry" />
        </mxCell>
        <mxCell id="THRWcxRN12PncpqzGOsP-8" style="rounded=0;orthogonalLoop=1;jettySize=auto;html=1;exitX=0.25;exitY=1;exitDx=0;exitDy=0;entryX=0.5;entryY=0;entryDx=0;entryDy=0;endArrow=none;endFill=0;" edge="1" parent="1" source="IZrYQHv6k2Q41Ur_gELw-2" target="THRWcxRN12PncpqzGOsP-6">
          <mxGeometry relative="1" as="geometry" />
        </mxCell>
        <mxCell id="IZrYQHv6k2Q41Ur_gELw-2" value="Pengemudi" style="rounded=1;whiteSpace=wrap;html=1;" parent="1" vertex="1">
          <mxGeometry x="690" y="290" width="120" height="60" as="geometry" />
        </mxCell>
        <mxCell id="V6kNxZ7ZtcKd7eROdgmK-2" style="rounded=0;orthogonalLoop=1;jettySize=auto;html=1;exitX=0;exitY=0.25;exitDx=0;exitDy=0;endArrow=none;endFill=0;" edge="1" parent="1" source="IZrYQHv6k2Q41Ur_gELw-3" target="Zr5ezOpr8fHzjDE-CqE--3">
          <mxGeometry relative="1" as="geometry" />
        </mxCell>
        <mxCell id="IZrYQHv6k2Q41Ur_gELw-3" value="Kendaraan" style="rounded=1;whiteSpace=wrap;html=1;" parent="1" vertex="1">
          <mxGeometry x="270" y="110" width="120" height="60" as="geometry" />
        </mxCell>
        <mxCell id="Zr5ezOpr8fHzjDE-CqE--1" value="Ban" style="ellipse;whiteSpace=wrap;html=1;" vertex="1" parent="1">
          <mxGeometry x="280" y="10" width="120" height="80" as="geometry" />
        </mxCell>
        <mxCell id="Zr5ezOpr8fHzjDE-CqE--3" value="Model / Merek" style="ellipse;whiteSpace=wrap;html=1;" vertex="1" parent="1">
          <mxGeometry x="130" y="60" width="120" height="80" as="geometry" />
        </mxCell>
        <mxCell id="Zr5ezOpr8fHzjDE-CqE--4" value="Muatan" style="ellipse;whiteSpace=wrap;html=1;" vertex="1" parent="1">
          <mxGeometry x="140" y="160" width="120" height="80" as="geometry" />
        </mxCell>
        <mxCell id="Zr5ezOpr8fHzjDE-CqE--5" value="Warna" style="ellipse;whiteSpace=wrap;html=1;" vertex="1" parent="1">
          <mxGeometry x="410" y="60" width="120" height="80" as="geometry" />
        </mxCell>
        <mxCell id="V6kNxZ7ZtcKd7eROdgmK-1" value="Jenis Bahan Bakar" style="ellipse;whiteSpace=wrap;html=1;" vertex="1" parent="1">
          <mxGeometry x="270" y="200" width="120" height="80" as="geometry" />
        </mxCell>
        <mxCell id="V6kNxZ7ZtcKd7eROdgmK-3" style="rounded=0;orthogonalLoop=1;jettySize=auto;html=1;exitX=0.5;exitY=1;exitDx=0;exitDy=0;entryX=0.45;entryY=0.017;entryDx=0;entryDy=0;entryPerimeter=0;endArrow=none;endFill=0;" edge="1" parent="1" source="Zr5ezOpr8fHzjDE-CqE--1" target="IZrYQHv6k2Q41Ur_gELw-3">
          <mxGeometry relative="1" as="geometry" />
        </mxCell>
        <mxCell id="V6kNxZ7ZtcKd7eROdgmK-4" style="rounded=0;orthogonalLoop=1;jettySize=auto;html=1;entryX=0.867;entryY=0.017;entryDx=0;entryDy=0;entryPerimeter=0;endArrow=none;endFill=0;" edge="1" parent="1" target="IZrYQHv6k2Q41Ur_gELw-3">
          <mxGeometry relative="1" as="geometry">
            <mxPoint x="410" y="100" as="sourcePoint" />
          </mxGeometry>
        </mxCell>
        <mxCell id="V6kNxZ7ZtcKd7eROdgmK-6" style="edgeStyle=orthogonalEdgeStyle;rounded=0;orthogonalLoop=1;jettySize=auto;html=1;exitX=0.75;exitY=1;exitDx=0;exitDy=0;entryX=0.575;entryY=-0.025;entryDx=0;entryDy=0;entryPerimeter=0;endArrow=none;endFill=0;" edge="1" parent="1" source="IZrYQHv6k2Q41Ur_gELw-3" target="V6kNxZ7ZtcKd7eROdgmK-1">
          <mxGeometry relative="1" as="geometry" />
        </mxCell>
        <mxCell id="V6kNxZ7ZtcKd7eROdgmK-7" style="rounded=0;orthogonalLoop=1;jettySize=auto;html=1;exitX=0;exitY=1;exitDx=0;exitDy=0;entryX=0.883;entryY=0.25;entryDx=0;entryDy=0;entryPerimeter=0;endArrow=none;endFill=0;" edge="1" parent="1" source="IZrYQHv6k2Q41Ur_gELw-3" target="Zr5ezOpr8fHzjDE-CqE--4">
          <mxGeometry relative="1" as="geometry" />
        </mxCell>
        <mxCell id="THRWcxRN12PncpqzGOsP-1" value="Jenis Kelamin" style="ellipse;whiteSpace=wrap;html=1;" vertex="1" parent="1">
          <mxGeometry x="760" y="180" width="120" height="80" as="geometry" />
        </mxCell>
        <mxCell id="THRWcxRN12PncpqzGOsP-3" value="" style="endArrow=none;html=1;rounded=0;exitX=0.85;exitY=-0.017;exitDx=0;exitDy=0;exitPerimeter=0;" edge="1" parent="1" source="IZrYQHv6k2Q41Ur_gELw-2">
          <mxGeometry width="50" height="50" relative="1" as="geometry">
            <mxPoint x="760" y="310" as="sourcePoint" />
            <mxPoint x="810" y="260" as="targetPoint" />
          </mxGeometry>
        </mxCell>
        <mxCell id="THRWcxRN12PncpqzGOsP-4" value="SIM / KTP" style="ellipse;whiteSpace=wrap;html=1;" vertex="1" parent="1">
          <mxGeometry x="800" y="370" width="120" height="80" as="geometry" />
        </mxCell>
        <mxCell id="THRWcxRN12PncpqzGOsP-5" value="" style="endArrow=none;html=1;rounded=0;exitX=0.5;exitY=0;exitDx=0;exitDy=0;entryX=0.892;entryY=1;entryDx=0;entryDy=0;entryPerimeter=0;" edge="1" parent="1" source="THRWcxRN12PncpqzGOsP-4" target="IZrYQHv6k2Q41Ur_gELw-2">
          <mxGeometry width="50" height="50" relative="1" as="geometry">
            <mxPoint x="510" y="320" as="sourcePoint" />
            <mxPoint x="560" y="270" as="targetPoint" />
          </mxGeometry>
        </mxCell>
        <mxCell id="THRWcxRN12PncpqzGOsP-6" value="Nama" style="ellipse;whiteSpace=wrap;html=1;" vertex="1" parent="1">
          <mxGeometry x="660" y="380" width="120" height="80" as="geometry" />
        </mxCell>
        <mxCell id="THRWcxRN12PncpqzGOsP-7" value="NISN" style="ellipse;whiteSpace=wrap;html=1;" vertex="1" parent="1">
          <mxGeometry x="100" y="410" width="120" height="80" as="geometry" />
        </mxCell>
        <mxCell id="THRWcxRN12PncpqzGOsP-9" value="Plat" style="ellipse;whiteSpace=wrap;html=1;" vertex="1" parent="1">
          <mxGeometry x="420" y="180" width="120" height="80" as="geometry" />
        </mxCell>
        <mxCell id="THRWcxRN12PncpqzGOsP-11" value="" style="endArrow=none;html=1;rounded=0;exitX=0.992;exitY=0.9;exitDx=0;exitDy=0;exitPerimeter=0;entryX=0;entryY=0;entryDx=0;entryDy=0;" edge="1" parent="1" source="IZrYQHv6k2Q41Ur_gELw-3" target="THRWcxRN12PncpqzGOsP-9">
          <mxGeometry width="50" height="50" relative="1" as="geometry">
            <mxPoint x="400" y="270" as="sourcePoint" />
            <mxPoint x="450" y="220" as="targetPoint" />
          </mxGeometry>
        </mxCell>
        <mxCell id="THRWcxRN12PncpqzGOsP-15" value="" style="endArrow=none;html=1;rounded=0;exitX=1;exitY=0.5;exitDx=0;exitDy=0;entryX=0;entryY=0.5;entryDx=0;entryDy=0;" edge="1" parent="1" source="THRWcxRN12PncpqzGOsP-7" target="IZrYQHv6k2Q41Ur_gELw-1">
          <mxGeometry width="50" height="50" relative="1" as="geometry">
            <mxPoint x="440" y="400" as="sourcePoint" />
            <mxPoint x="490" y="350" as="targetPoint" />
          </mxGeometry>
        </mxCell>
        <mxCell id="THRWcxRN12PncpqzGOsP-16" value="Jenis Kelamin" style="ellipse;whiteSpace=wrap;html=1;" vertex="1" parent="1">
          <mxGeometry x="440" y="430" width="120" height="80" as="geometry" />
        </mxCell>
        <mxCell id="THRWcxRN12PncpqzGOsP-17" value="" style="endArrow=none;html=1;rounded=0;entryX=1;entryY=0.75;entryDx=0;entryDy=0;" edge="1" parent="1" target="IZrYQHv6k2Q41Ur_gELw-1">
          <mxGeometry width="50" height="50" relative="1" as="geometry">
            <mxPoint x="440" y="470" as="sourcePoint" />
            <mxPoint x="490" y="350" as="targetPoint" />
          </mxGeometry>
        </mxCell>
        <mxCell id="THRWcxRN12PncpqzGOsP-18" value="Nama&amp;nbsp;" style="ellipse;whiteSpace=wrap;html=1;" vertex="1" parent="1">
          <mxGeometry x="365" y="330" width="120" height="80" as="geometry" />
        </mxCell>
        <mxCell id="THRWcxRN12PncpqzGOsP-19" value="Umur" style="ellipse;whiteSpace=wrap;html=1;" vertex="1" parent="1">
          <mxGeometry x="340" y="510" width="120" height="80" as="geometry" />
        </mxCell>
        <mxCell id="THRWcxRN12PncpqzGOsP-21" value="" style="endArrow=none;html=1;rounded=0;exitX=0.95;exitY=0.05;exitDx=0;exitDy=0;exitPerimeter=0;entryX=0.442;entryY=0.975;entryDx=0;entryDy=0;entryPerimeter=0;" edge="1" parent="1" source="IZrYQHv6k2Q41Ur_gELw-1" target="THRWcxRN12PncpqzGOsP-18">
          <mxGeometry width="50" height="50" relative="1" as="geometry">
            <mxPoint x="440" y="400" as="sourcePoint" />
            <mxPoint x="490" y="350" as="targetPoint" />
          </mxGeometry>
        </mxCell>
        <mxCell id="THRWcxRN12PncpqzGOsP-22" value="" style="endArrow=none;html=1;rounded=0;exitX=0.5;exitY=0;exitDx=0;exitDy=0;" edge="1" parent="1" source="THRWcxRN12PncpqzGOsP-19" target="IZrYQHv6k2Q41Ur_gELw-1">
          <mxGeometry width="50" height="50" relative="1" as="geometry">
            <mxPoint x="440" y="400" as="sourcePoint" />
            <mxPoint x="490" y="350" as="targetPoint" />
          </mxGeometry>
        </mxCell>
        <mxCell id="THRWcxRN12PncpqzGOsP-23" value="Sekiolah" style="ellipse;whiteSpace=wrap;html=1;" vertex="1" parent="1">
          <mxGeometry x="180" y="500" width="120" height="80" as="geometry" />
        </mxCell>
        <mxCell id="THRWcxRN12PncpqzGOsP-24" value="Tujuan" style="ellipse;whiteSpace=wrap;html=1;" vertex="1" parent="1">
          <mxGeometry x="200" y="300" width="120" height="80" as="geometry" />
        </mxCell>
        <mxCell id="THRWcxRN12PncpqzGOsP-25" value="" style="endArrow=none;html=1;rounded=0;exitX=0.375;exitY=-0.017;exitDx=0;exitDy=0;exitPerimeter=0;entryX=0.425;entryY=0.95;entryDx=0;entryDy=0;entryPerimeter=0;" edge="1" parent="1" source="IZrYQHv6k2Q41Ur_gELw-1" target="THRWcxRN12PncpqzGOsP-24">
          <mxGeometry width="50" height="50" relative="1" as="geometry">
            <mxPoint x="430" y="400" as="sourcePoint" />
            <mxPoint x="480" y="350" as="targetPoint" />
          </mxGeometry>
        </mxCell>
        <mxCell id="THRWcxRN12PncpqzGOsP-26" value="" style="endArrow=none;html=1;rounded=0;entryX=0.317;entryY=0.967;entryDx=0;entryDy=0;entryPerimeter=0;" edge="1" parent="1" source="THRWcxRN12PncpqzGOsP-23" target="IZrYQHv6k2Q41Ur_gELw-1">
          <mxGeometry width="50" height="50" relative="1" as="geometry">
            <mxPoint x="430" y="400" as="sourcePoint" />
            <mxPoint x="480" y="350" as="targetPoint" />
          </mxGeometry>
        </mxCell>
      </root>
    </mxGraphModel>
  </diagram>
  <diagram id="JawBgesDtcKagDP1JNVA" name="Page-3">
    <mxGraphModel dx="1173" dy="624" grid="1" gridSize="10" guides="1" tooltips="1" connect="1" arrows="1" fold="1" page="1" pageScale="1" pageWidth="850" pageHeight="1100" math="0" shadow="0">
      <root>
        <mxCell id="0" />
        <mxCell id="1" parent="0" />
        <mxCell id="v86pV2293G5O6l1HOy5k-3" value="Dosen" style="rounded=1;whiteSpace=wrap;html=1;" vertex="1" parent="1">
          <mxGeometry x="160" y="140" width="120" height="60" as="geometry" />
        </mxCell>
        <mxCell id="v86pV2293G5O6l1HOy5k-4" value="Mahasiswa" style="rounded=1;whiteSpace=wrap;html=1;" vertex="1" parent="1">
          <mxGeometry x="679" y="130" width="120" height="60" as="geometry" />
        </mxCell>
        <mxCell id="v86pV2293G5O6l1HOy5k-14" value="" style="group" vertex="1" connectable="0" parent="1">
          <mxGeometry x="150" y="20" width="120" height="80" as="geometry" />
        </mxCell>
        <mxCell id="v86pV2293G5O6l1HOy5k-13" value="" style="ellipse;whiteSpace=wrap;html=1;" vertex="1" parent="v86pV2293G5O6l1HOy5k-14">
          <mxGeometry width="120" height="80" as="geometry" />
        </mxCell>
        <mxCell id="v86pV2293G5O6l1HOy5k-5" value="Jenis Kelamin" style="text;html=1;align=center;verticalAlign=middle;resizable=0;points=[];autosize=1;strokeColor=none;fillColor=none;" vertex="1" parent="v86pV2293G5O6l1HOy5k-14">
          <mxGeometry x="10" y="25" width="100" height="30" as="geometry" />
        </mxCell>
        <mxCell id="v86pV2293G5O6l1HOy5k-22" value="" style="group" vertex="1" connectable="0" parent="1">
          <mxGeometry x="90" y="220" width="120" height="80" as="geometry" />
        </mxCell>
        <mxCell id="v86pV2293G5O6l1HOy5k-19" value="" style="ellipse;whiteSpace=wrap;html=1;" vertex="1" parent="v86pV2293G5O6l1HOy5k-22">
          <mxGeometry width="120" height="80" as="geometry" />
        </mxCell>
        <mxCell id="v86pV2293G5O6l1HOy5k-7" value="Nama" style="text;html=1;align=center;verticalAlign=middle;resizable=0;points=[];autosize=1;strokeColor=none;fillColor=none;" vertex="1" parent="v86pV2293G5O6l1HOy5k-22">
          <mxGeometry x="30" y="25" width="60" height="30" as="geometry" />
        </mxCell>
        <mxCell id="v86pV2293G5O6l1HOy5k-23" value="" style="group" vertex="1" connectable="0" parent="1">
          <mxGeometry x="220" y="240" width="120" height="80" as="geometry" />
        </mxCell>
        <mxCell id="v86pV2293G5O6l1HOy5k-17" value="" style="ellipse;whiteSpace=wrap;html=1;" vertex="1" parent="v86pV2293G5O6l1HOy5k-23">
          <mxGeometry width="120" height="80" as="geometry" />
        </mxCell>
        <mxCell id="v86pV2293G5O6l1HOy5k-10" value="NIDN" style="text;html=1;align=center;verticalAlign=middle;resizable=0;points=[];autosize=1;strokeColor=none;fillColor=none;" vertex="1" parent="v86pV2293G5O6l1HOy5k-23">
          <mxGeometry x="35" y="25" width="50" height="30" as="geometry" />
        </mxCell>
        <mxCell id="v86pV2293G5O6l1HOy5k-24" value="" style="group" vertex="1" connectable="0" parent="1">
          <mxGeometry x="350" y="170" width="120" height="80" as="geometry" />
        </mxCell>
        <mxCell id="v86pV2293G5O6l1HOy5k-16" value="" style="ellipse;whiteSpace=wrap;html=1;" vertex="1" parent="v86pV2293G5O6l1HOy5k-24">
          <mxGeometry width="120" height="80" as="geometry" />
        </mxCell>
        <mxCell id="v86pV2293G5O6l1HOy5k-11" value="Fakultas" style="text;html=1;align=center;verticalAlign=middle;resizable=0;points=[];autosize=1;strokeColor=none;fillColor=none;" vertex="1" parent="v86pV2293G5O6l1HOy5k-24">
          <mxGeometry x="25" y="25" width="70" height="30" as="geometry" />
        </mxCell>
        <mxCell id="v86pV2293G5O6l1HOy5k-25" value="" style="group" vertex="1" connectable="0" parent="1">
          <mxGeometry x="310" y="75" width="120" height="80" as="geometry" />
        </mxCell>
        <mxCell id="v86pV2293G5O6l1HOy5k-15" value="" style="ellipse;whiteSpace=wrap;html=1;" vertex="1" parent="v86pV2293G5O6l1HOy5k-25">
          <mxGeometry width="120" height="80" as="geometry" />
        </mxCell>
        <mxCell id="v86pV2293G5O6l1HOy5k-8" value="Matkul" style="text;html=1;align=center;verticalAlign=middle;resizable=0;points=[];autosize=1;strokeColor=none;fillColor=none;" vertex="1" parent="v86pV2293G5O6l1HOy5k-25">
          <mxGeometry x="30" y="25" width="60" height="30" as="geometry" />
        </mxCell>
        <mxCell id="v86pV2293G5O6l1HOy5k-26" value="" style="endArrow=none;html=1;rounded=0;exitX=0.5;exitY=0;exitDx=0;exitDy=0;entryX=0.5;entryY=1;entryDx=0;entryDy=0;" edge="1" parent="1" source="v86pV2293G5O6l1HOy5k-3" target="v86pV2293G5O6l1HOy5k-13">
          <mxGeometry width="50" height="50" relative="1" as="geometry">
            <mxPoint x="380" y="270" as="sourcePoint" />
            <mxPoint x="430" y="220" as="targetPoint" />
          </mxGeometry>
        </mxCell>
        <mxCell id="v86pV2293G5O6l1HOy5k-27" value="" style="endArrow=none;html=1;rounded=0;exitX=1;exitY=0.25;exitDx=0;exitDy=0;entryX=0.017;entryY=0.663;entryDx=0;entryDy=0;entryPerimeter=0;" edge="1" parent="1" source="v86pV2293G5O6l1HOy5k-3" target="v86pV2293G5O6l1HOy5k-15">
          <mxGeometry width="50" height="50" relative="1" as="geometry">
            <mxPoint x="230" y="150" as="sourcePoint" />
            <mxPoint x="270" y="110" as="targetPoint" />
          </mxGeometry>
        </mxCell>
        <mxCell id="v86pV2293G5O6l1HOy5k-28" value="" style="endArrow=none;html=1;rounded=0;entryX=0;entryY=0.5;entryDx=0;entryDy=0;exitX=1;exitY=1;exitDx=0;exitDy=0;" edge="1" parent="1" source="v86pV2293G5O6l1HOy5k-3" target="v86pV2293G5O6l1HOy5k-16">
          <mxGeometry width="50" height="50" relative="1" as="geometry">
            <mxPoint x="290" y="165" as="sourcePoint" />
            <mxPoint x="328" y="139" as="targetPoint" />
          </mxGeometry>
        </mxCell>
        <mxCell id="v86pV2293G5O6l1HOy5k-29" value="" style="endArrow=none;html=1;rounded=0;exitX=0.65;exitY=0.983;exitDx=0;exitDy=0;exitPerimeter=0;entryX=0.225;entryY=0.113;entryDx=0;entryDy=0;entryPerimeter=0;" edge="1" parent="1" source="v86pV2293G5O6l1HOy5k-3" target="v86pV2293G5O6l1HOy5k-17">
          <mxGeometry width="50" height="50" relative="1" as="geometry">
            <mxPoint x="380" y="270" as="sourcePoint" />
            <mxPoint x="430" y="220" as="targetPoint" />
          </mxGeometry>
        </mxCell>
        <mxCell id="v86pV2293G5O6l1HOy5k-30" value="" style="endArrow=none;html=1;rounded=0;exitX=0.175;exitY=1;exitDx=0;exitDy=0;exitPerimeter=0;entryX=0.675;entryY=0.063;entryDx=0;entryDy=0;entryPerimeter=0;" edge="1" parent="1" source="v86pV2293G5O6l1HOy5k-3" target="v86pV2293G5O6l1HOy5k-19">
          <mxGeometry width="50" height="50" relative="1" as="geometry">
            <mxPoint x="380" y="270" as="sourcePoint" />
            <mxPoint x="430" y="220" as="targetPoint" />
          </mxGeometry>
        </mxCell>
        <mxCell id="v86pV2293G5O6l1HOy5k-31" value="NPM" style="ellipse;whiteSpace=wrap;html=1;" vertex="1" parent="1">
          <mxGeometry x="640" y="230" width="120" height="80" as="geometry" />
        </mxCell>
        <mxCell id="v86pV2293G5O6l1HOy5k-32" value="Jurusan" style="ellipse;whiteSpace=wrap;html=1;" vertex="1" parent="1">
          <mxGeometry x="790" y="210" width="120" height="80" as="geometry" />
        </mxCell>
        <mxCell id="v86pV2293G5O6l1HOy5k-33" value="nama" style="ellipse;whiteSpace=wrap;html=1;" vertex="1" parent="1">
          <mxGeometry x="840" y="95" width="120" height="80" as="geometry" />
        </mxCell>
        <mxCell id="v86pV2293G5O6l1HOy5k-34" value="kelas" style="ellipse;whiteSpace=wrap;html=1;" vertex="1" parent="1">
          <mxGeometry x="720" y="10" width="120" height="80" as="geometry" />
        </mxCell>
        <mxCell id="v86pV2293G5O6l1HOy5k-37" value="jenis kelamin" style="ellipse;whiteSpace=wrap;html=1;" vertex="1" parent="1">
          <mxGeometry x="580" y="30" width="120" height="80" as="geometry" />
        </mxCell>
        <mxCell id="v86pV2293G5O6l1HOy5k-38" value="" style="endArrow=none;html=1;rounded=0;exitX=0.575;exitY=0.975;exitDx=0;exitDy=0;exitPerimeter=0;entryX=0;entryY=0;entryDx=0;entryDy=0;" edge="1" parent="1" source="v86pV2293G5O6l1HOy5k-37" target="v86pV2293G5O6l1HOy5k-4">
          <mxGeometry width="50" height="50" relative="1" as="geometry">
            <mxPoint x="840" y="270" as="sourcePoint" />
            <mxPoint x="890" y="220" as="targetPoint" />
          </mxGeometry>
        </mxCell>
        <mxCell id="v86pV2293G5O6l1HOy5k-39" value="" style="endArrow=none;html=1;rounded=0;exitX=0.558;exitY=0;exitDx=0;exitDy=0;exitPerimeter=0;" edge="1" parent="1" source="v86pV2293G5O6l1HOy5k-4" target="v86pV2293G5O6l1HOy5k-34">
          <mxGeometry width="50" height="50" relative="1" as="geometry">
            <mxPoint x="840" y="270" as="sourcePoint" />
            <mxPoint x="890" y="220" as="targetPoint" />
          </mxGeometry>
        </mxCell>
        <mxCell id="v86pV2293G5O6l1HOy5k-40" value="" style="endArrow=none;html=1;rounded=0;exitX=1.008;exitY=0.4;exitDx=0;exitDy=0;entryX=-0.008;entryY=0.65;entryDx=0;entryDy=0;entryPerimeter=0;exitPerimeter=0;" edge="1" parent="1" source="v86pV2293G5O6l1HOy5k-4" target="v86pV2293G5O6l1HOy5k-33">
          <mxGeometry width="50" height="50" relative="1" as="geometry">
            <mxPoint x="747" y="140" as="sourcePoint" />
            <mxPoint x="770" y="98" as="targetPoint" />
          </mxGeometry>
        </mxCell>
        <mxCell id="v86pV2293G5O6l1HOy5k-41" value="" style="endArrow=none;html=1;rounded=0;entryX=0.75;entryY=1;entryDx=0;entryDy=0;exitX=0.1;exitY=0.188;exitDx=0;exitDy=0;exitPerimeter=0;" edge="1" parent="1" source="v86pV2293G5O6l1HOy5k-32" target="v86pV2293G5O6l1HOy5k-4">
          <mxGeometry width="50" height="50" relative="1" as="geometry">
            <mxPoint x="840" y="270" as="sourcePoint" />
            <mxPoint x="890" y="220" as="targetPoint" />
          </mxGeometry>
        </mxCell>
        <mxCell id="v86pV2293G5O6l1HOy5k-43" value="" style="endArrow=none;html=1;rounded=0;entryX=0.25;entryY=1;entryDx=0;entryDy=0;" edge="1" parent="1" source="v86pV2293G5O6l1HOy5k-31" target="v86pV2293G5O6l1HOy5k-4">
          <mxGeometry width="50" height="50" relative="1" as="geometry">
            <mxPoint x="840" y="270" as="sourcePoint" />
            <mxPoint x="890" y="220" as="targetPoint" />
          </mxGeometry>
        </mxCell>
        <mxCell id="v86pV2293G5O6l1HOy5k-51" value="Fakultas" style="ellipse;whiteSpace=wrap;html=1;" vertex="1" parent="1">
          <mxGeometry x="500" y="110" width="120" height="80" as="geometry" />
        </mxCell>
        <mxCell id="m4I6I95u6ICx7lbD-Gic-1" value="" style="endArrow=none;html=1;rounded=0;exitX=1;exitY=0.5;exitDx=0;exitDy=0;" edge="1" parent="1" source="v86pV2293G5O6l1HOy5k-51" target="v86pV2293G5O6l1HOy5k-4">
          <mxGeometry width="50" height="50" relative="1" as="geometry">
            <mxPoint x="480" y="-100" as="sourcePoint" />
            <mxPoint x="530" y="-150" as="targetPoint" />
          </mxGeometry>
        </mxCell>
        <mxCell id="m4I6I95u6ICx7lbD-Gic-3" style="rounded=0;orthogonalLoop=1;jettySize=auto;html=1;entryX=0;entryY=0.75;entryDx=0;entryDy=0;strokeColor=#666666;fillColor=#f5f5f5;endArrow=none;endFill=0;" edge="1" parent="1" source="m4I6I95u6ICx7lbD-Gic-2" target="v86pV2293G5O6l1HOy5k-4">
          <mxGeometry relative="1" as="geometry" />
        </mxCell>
        <mxCell id="m4I6I95u6ICx7lbD-Gic-2" value="Organisasi" style="ellipse;whiteSpace=wrap;html=1;" vertex="1" parent="1">
          <mxGeometry x="510" y="210" width="120" height="80" as="geometry" />
        </mxCell>
        <mxCell id="m4I6I95u6ICx7lbD-Gic-6" style="rounded=0;orthogonalLoop=1;jettySize=auto;html=1;entryX=0;entryY=0.5;entryDx=0;entryDy=0;endArrow=none;endFill=0;" edge="1" parent="1" source="m4I6I95u6ICx7lbD-Gic-4" target="v86pV2293G5O6l1HOy5k-3">
          <mxGeometry relative="1" as="geometry" />
        </mxCell>
        <mxCell id="m4I6I95u6ICx7lbD-Gic-4" value="Jabatan / Tingkatan" style="ellipse;whiteSpace=wrap;html=1;" vertex="1" parent="1">
          <mxGeometry y="60" width="130" height="80" as="geometry" />
        </mxCell>
      </root>
    </mxGraphModel>
  </diagram>
  <diagram id="X8YrKqqbUvwrMxKWU0zk" name="Page-4">
    <mxGraphModel dx="753" dy="539" grid="1" gridSize="10" guides="1" tooltips="1" connect="1" arrows="1" fold="1" page="1" pageScale="1" pageWidth="850" pageHeight="1100" math="0" shadow="0">
      <root>
        <mxCell id="0" />
        <mxCell id="1" parent="0" />
        <mxCell id="250ABMojkNrIHn3kEJF_-1" value="Dosen" style="rounded=1;whiteSpace=wrap;html=1;" vertex="1" parent="1">
          <mxGeometry x="200" y="150" width="120" height="60" as="geometry" />
        </mxCell>
        <mxCell id="250ABMojkNrIHn3kEJF_-4" value="" style="endArrow=none;html=1;rounded=0;exitX=1;exitY=0;exitDx=0;exitDy=0;endFill=0;" edge="1" parent="1" source="250ABMojkNrIHn3kEJF_-1">
          <mxGeometry width="50" height="50" relative="1" as="geometry">
            <mxPoint x="360" y="300" as="sourcePoint" />
            <mxPoint x="360" y="130" as="targetPoint" />
          </mxGeometry>
        </mxCell>
        <mxCell id="250ABMojkNrIHn3kEJF_-5" value="NIDN" style="ellipse;whiteSpace=wrap;html=1;" vertex="1" parent="1">
          <mxGeometry x="365" y="90" width="105" height="60" as="geometry" />
        </mxCell>
        <mxCell id="250ABMojkNrIHn3kEJF_-6" value="Nama" style="ellipse;whiteSpace=wrap;html=1;" vertex="1" parent="1">
          <mxGeometry x="250" y="50" width="110" height="50" as="geometry" />
        </mxCell>
        <mxCell id="250ABMojkNrIHn3kEJF_-9" value="" style="endArrow=none;html=1;rounded=0;entryX=0.5;entryY=1;entryDx=0;entryDy=0;exitX=0.5;exitY=0;exitDx=0;exitDy=0;endFill=0;" edge="1" parent="1" source="250ABMojkNrIHn3kEJF_-1" target="250ABMojkNrIHn3kEJF_-6">
          <mxGeometry width="50" height="50" relative="1" as="geometry">
            <mxPoint x="360" y="300" as="sourcePoint" />
            <mxPoint x="410" y="250" as="targetPoint" />
          </mxGeometry>
        </mxCell>
        <mxCell id="250ABMojkNrIHn3kEJF_-11" value="JK&amp;nbsp;" style="ellipse;whiteSpace=wrap;html=1;" vertex="1" parent="1">
          <mxGeometry x="110" y="47.5" width="110" height="55" as="geometry" />
        </mxCell>
        <mxCell id="250ABMojkNrIHn3kEJF_-12" value="" style="endArrow=none;html=1;rounded=0;entryX=0.5;entryY=1;entryDx=0;entryDy=0;exitX=0;exitY=0;exitDx=0;exitDy=0;endFill=0;" edge="1" parent="1" source="250ABMojkNrIHn3kEJF_-1" target="250ABMojkNrIHn3kEJF_-11">
          <mxGeometry width="50" height="50" relative="1" as="geometry">
            <mxPoint x="360" y="300" as="sourcePoint" />
            <mxPoint x="410" y="250" as="targetPoint" />
          </mxGeometry>
        </mxCell>
        <mxCell id="250ABMojkNrIHn3kEJF_-16" value="Membimbing" style="rhombus;whiteSpace=wrap;html=1;" vertex="1" parent="1">
          <mxGeometry x="490" y="140" width="110" height="80" as="geometry" />
        </mxCell>
        <mxCell id="250ABMojkNrIHn3kEJF_-18" value="" style="endArrow=none;html=1;rounded=0;exitX=1;exitY=0.5;exitDx=0;exitDy=0;entryX=0;entryY=0.5;entryDx=0;entryDy=0;endFill=0;" edge="1" parent="1" source="250ABMojkNrIHn3kEJF_-1" target="250ABMojkNrIHn3kEJF_-16">
          <mxGeometry width="50" height="50" relative="1" as="geometry">
            <mxPoint x="500" y="290" as="sourcePoint" />
            <mxPoint x="550" y="240" as="targetPoint" />
          </mxGeometry>
        </mxCell>
        <mxCell id="250ABMojkNrIHn3kEJF_-20" value="Mahasiswa" style="rounded=1;whiteSpace=wrap;html=1;" vertex="1" parent="1">
          <mxGeometry x="720" y="150" width="120" height="60" as="geometry" />
        </mxCell>
        <mxCell id="250ABMojkNrIHn3kEJF_-21" value="" style="endArrow=none;html=1;rounded=0;exitX=0;exitY=0.5;exitDx=0;exitDy=0;entryX=1;entryY=0.5;entryDx=0;entryDy=0;endFill=0;" edge="1" parent="1" source="250ABMojkNrIHn3kEJF_-20" target="250ABMojkNrIHn3kEJF_-16">
          <mxGeometry width="50" height="50" relative="1" as="geometry">
            <mxPoint x="550" y="290" as="sourcePoint" />
            <mxPoint x="600" y="240" as="targetPoint" />
          </mxGeometry>
        </mxCell>
        <mxCell id="250ABMojkNrIHn3kEJF_-22" value="NPM&amp;nbsp;" style="ellipse;whiteSpace=wrap;html=1;" vertex="1" parent="1">
          <mxGeometry x="790" y="20" width="120" height="60" as="geometry" />
        </mxCell>
        <mxCell id="250ABMojkNrIHn3kEJF_-23" value="Nama" style="ellipse;whiteSpace=wrap;html=1;" vertex="1" parent="1">
          <mxGeometry x="910" y="60" width="120" height="70" as="geometry" />
        </mxCell>
        <mxCell id="250ABMojkNrIHn3kEJF_-24" value="JK&amp;nbsp;" style="ellipse;whiteSpace=wrap;html=1;" vertex="1" parent="1">
          <mxGeometry x="640" y="10" width="120" height="80" as="geometry" />
        </mxCell>
        <mxCell id="250ABMojkNrIHn3kEJF_-25" value="" style="endArrow=none;html=1;rounded=0;entryX=0.5;entryY=1;entryDx=0;entryDy=0;exitX=0.5;exitY=0;exitDx=0;exitDy=0;endFill=0;" edge="1" parent="1" source="250ABMojkNrIHn3kEJF_-20" target="250ABMojkNrIHn3kEJF_-24">
          <mxGeometry width="50" height="50" relative="1" as="geometry">
            <mxPoint x="680" y="290" as="sourcePoint" />
            <mxPoint x="790" y="110" as="targetPoint" />
          </mxGeometry>
        </mxCell>
        <mxCell id="250ABMojkNrIHn3kEJF_-26" value="" style="endArrow=none;html=1;rounded=0;entryX=0.25;entryY=0.894;entryDx=0;entryDy=0;entryPerimeter=0;exitX=1;exitY=0.128;exitDx=0;exitDy=0;exitPerimeter=0;endFill=0;" edge="1" parent="1" source="250ABMojkNrIHn3kEJF_-20" target="250ABMojkNrIHn3kEJF_-22">
          <mxGeometry width="50" height="50" relative="1" as="geometry">
            <mxPoint x="680" y="290" as="sourcePoint" />
            <mxPoint x="730" y="240" as="targetPoint" />
          </mxGeometry>
        </mxCell>
        <mxCell id="250ABMojkNrIHn3kEJF_-27" value="" style="endArrow=none;html=1;rounded=0;entryX=0;entryY=0.5;entryDx=0;entryDy=0;exitX=1;exitY=0.75;exitDx=0;exitDy=0;endFill=0;" edge="1" parent="1" source="250ABMojkNrIHn3kEJF_-20" target="250ABMojkNrIHn3kEJF_-23">
          <mxGeometry width="50" height="50" relative="1" as="geometry">
            <mxPoint x="570" y="320" as="sourcePoint" />
            <mxPoint x="620" y="270" as="targetPoint" />
          </mxGeometry>
        </mxCell>
        <mxCell id="250ABMojkNrIHn3kEJF_-29" value="Kode Dosen" style="ellipse;whiteSpace=wrap;html=1;" vertex="1" parent="1">
          <mxGeometry x="590" y="211" width="120" height="70" as="geometry" />
        </mxCell>
        <mxCell id="250ABMojkNrIHn3kEJF_-30" value="" style="endArrow=none;html=1;rounded=0;exitX=1;exitY=1;exitDx=0;exitDy=0;entryX=0.5;entryY=0;entryDx=0;entryDy=0;endFill=0;" edge="1" parent="1" source="250ABMojkNrIHn3kEJF_-16" target="250ABMojkNrIHn3kEJF_-29">
          <mxGeometry width="50" height="50" relative="1" as="geometry">
            <mxPoint x="570" y="320" as="sourcePoint" />
            <mxPoint x="620" y="270" as="targetPoint" />
          </mxGeometry>
        </mxCell>
        <mxCell id="250ABMojkNrIHn3kEJF_-31" value="Kode Mahasiswa" style="ellipse;whiteSpace=wrap;html=1;" vertex="1" parent="1">
          <mxGeometry x="350" y="200" width="120" height="80" as="geometry" />
        </mxCell>
        <mxCell id="250ABMojkNrIHn3kEJF_-32" value="" style="endArrow=none;html=1;rounded=0;exitX=0;exitY=1;exitDx=0;exitDy=0;endFill=0;" edge="1" parent="1" source="250ABMojkNrIHn3kEJF_-16" target="250ABMojkNrIHn3kEJF_-31">
          <mxGeometry width="50" height="50" relative="1" as="geometry">
            <mxPoint x="570" y="320" as="sourcePoint" />
            <mxPoint x="620" y="270" as="targetPoint" />
          </mxGeometry>
        </mxCell>
        <mxCell id="250ABMojkNrIHn3kEJF_-33" value="Matkul" style="rounded=1;whiteSpace=wrap;html=1;" vertex="1" parent="1">
          <mxGeometry x="490" y="400" width="120" height="60" as="geometry" />
        </mxCell>
        <mxCell id="250ABMojkNrIHn3kEJF_-34" value="Mengajar" style="rhombus;whiteSpace=wrap;html=1;" vertex="1" parent="1">
          <mxGeometry x="270" y="320" width="130" height="100" as="geometry" />
        </mxCell>
        <mxCell id="250ABMojkNrIHn3kEJF_-35" value="" style="endArrow=none;html=1;rounded=0;exitX=0.5;exitY=1;exitDx=0;exitDy=0;entryX=0.333;entryY=0.113;entryDx=0;entryDy=0;entryPerimeter=0;endFill=0;" edge="1" parent="1" source="250ABMojkNrIHn3kEJF_-1" target="250ABMojkNrIHn3kEJF_-34">
          <mxGeometry width="50" height="50" relative="1" as="geometry">
            <mxPoint x="480" y="290" as="sourcePoint" />
            <mxPoint x="530" y="240" as="targetPoint" />
          </mxGeometry>
        </mxCell>
        <mxCell id="250ABMojkNrIHn3kEJF_-36" value="" style="endArrow=none;html=1;rounded=0;exitX=0.006;exitY=0.383;exitDx=0;exitDy=0;exitPerimeter=0;entryX=1;entryY=1;entryDx=0;entryDy=0;endFill=0;" edge="1" parent="1" source="250ABMojkNrIHn3kEJF_-33" target="250ABMojkNrIHn3kEJF_-34">
          <mxGeometry width="50" height="50" relative="1" as="geometry">
            <mxPoint x="480" y="290" as="sourcePoint" />
            <mxPoint x="530" y="240" as="targetPoint" />
          </mxGeometry>
        </mxCell>
        <mxCell id="250ABMojkNrIHn3kEJF_-37" value="Belajar / Mengambil" style="rhombus;whiteSpace=wrap;html=1;" vertex="1" parent="1">
          <mxGeometry x="690" y="290" width="130" height="100" as="geometry" />
        </mxCell>
        <mxCell id="250ABMojkNrIHn3kEJF_-38" value="" style="endArrow=none;html=1;rounded=0;exitX=0.5;exitY=1;exitDx=0;exitDy=0;entryX=0.5;entryY=0;entryDx=0;entryDy=0;endFill=0;" edge="1" parent="1" source="250ABMojkNrIHn3kEJF_-20" target="250ABMojkNrIHn3kEJF_-37">
          <mxGeometry width="50" height="50" relative="1" as="geometry">
            <mxPoint x="500" y="270" as="sourcePoint" />
            <mxPoint x="550" y="220" as="targetPoint" />
          </mxGeometry>
        </mxCell>
        <mxCell id="250ABMojkNrIHn3kEJF_-39" value="" style="endArrow=none;html=1;rounded=0;exitX=1;exitY=0.5;exitDx=0;exitDy=0;entryX=0;entryY=1;entryDx=0;entryDy=0;endFill=0;" edge="1" parent="1" source="250ABMojkNrIHn3kEJF_-33" target="250ABMojkNrIHn3kEJF_-37">
          <mxGeometry width="50" height="50" relative="1" as="geometry">
            <mxPoint x="500" y="270" as="sourcePoint" />
            <mxPoint x="550" y="220" as="targetPoint" />
          </mxGeometry>
        </mxCell>
        <mxCell id="250ABMojkNrIHn3kEJF_-40" value="Nama" style="ellipse;whiteSpace=wrap;html=1;" vertex="1" parent="1">
          <mxGeometry x="490" y="490" width="120" height="60" as="geometry" />
        </mxCell>
        <mxCell id="250ABMojkNrIHn3kEJF_-41" value="Kode Matkul" style="ellipse;whiteSpace=wrap;html=1;" vertex="1" parent="1">
          <mxGeometry x="360" y="480" width="120" height="60" as="geometry" />
        </mxCell>
        <mxCell id="250ABMojkNrIHn3kEJF_-42" value="" style="endArrow=none;html=1;rounded=0;exitX=0.25;exitY=1;exitDx=0;exitDy=0;entryX=0.611;entryY=-0.05;entryDx=0;entryDy=0;entryPerimeter=0;endFill=0;" edge="1" parent="1" source="250ABMojkNrIHn3kEJF_-33" target="250ABMojkNrIHn3kEJF_-41">
          <mxGeometry width="50" height="50" relative="1" as="geometry">
            <mxPoint x="570" y="360" as="sourcePoint" />
            <mxPoint x="620" y="310" as="targetPoint" />
          </mxGeometry>
        </mxCell>
        <mxCell id="250ABMojkNrIHn3kEJF_-43" value="" style="endArrow=none;html=1;rounded=0;exitX=0.5;exitY=1;exitDx=0;exitDy=0;entryX=0.5;entryY=0;entryDx=0;entryDy=0;endFill=0;" edge="1" parent="1" source="250ABMojkNrIHn3kEJF_-33" target="250ABMojkNrIHn3kEJF_-40">
          <mxGeometry width="50" height="50" relative="1" as="geometry">
            <mxPoint x="570" y="360" as="sourcePoint" />
            <mxPoint x="620" y="310" as="targetPoint" />
          </mxGeometry>
        </mxCell>
        <mxCell id="250ABMojkNrIHn3kEJF_-45" value="Prodi&lt;span style=&quot;color: rgba(0, 0, 0, 0); font-family: monospace; font-size: 0px; text-align: start; text-wrap-mode: nowrap;&quot;&gt;%3CmxGraphModel%3E%3Croot%3E%3CmxCell%20id%3D%220%22%2F%3E%3CmxCell%20id%3D%221%22%20parent%3D%220%22%2F%3E%3CmxCell%20id%3D%222%22%20value%3D%22NPM%26amp%3Bnbsp%3B%22%20style%3D%22ellipse%3BwhiteSpace%3Dwrap%3Bhtml%3D1%3B%22%20vertex%3D%221%22%20parent%3D%221%22%3E%3CmxGeometry%20x%3D%22860%22%20y%3D%2280%22%20width%3D%22120%22%20height%3D%2260%22%20as%3D%22geometry%22%2F%3E%3C%2FmxCell%3E%3C%2Froot%3E%3C%2FmxGraphModel%3E&lt;/span&gt;" style="ellipse;whiteSpace=wrap;html=1;" vertex="1" parent="1">
          <mxGeometry x="900" y="140" width="120" height="60" as="geometry" />
        </mxCell>
        <mxCell id="250ABMojkNrIHn3kEJF_-46" value="Fakultas" style="ellipse;whiteSpace=wrap;html=1;" vertex="1" parent="1">
          <mxGeometry x="890" y="220" width="120" height="60" as="geometry" />
        </mxCell>
        <mxCell id="250ABMojkNrIHn3kEJF_-47" value="KRS" style="ellipse;whiteSpace=wrap;html=1;" vertex="1" parent="1">
          <mxGeometry x="850" y="340" width="120" height="60" as="geometry" />
        </mxCell>
        <mxCell id="250ABMojkNrIHn3kEJF_-48" value="" style="endArrow=none;html=1;rounded=0;entryX=0;entryY=0.5;entryDx=0;entryDy=0;endFill=0;" edge="1" parent="1" target="250ABMojkNrIHn3kEJF_-45">
          <mxGeometry width="50" height="50" relative="1" as="geometry">
            <mxPoint x="840" y="200" as="sourcePoint" />
            <mxPoint x="690" y="170" as="targetPoint" />
          </mxGeometry>
        </mxCell>
        <mxCell id="250ABMojkNrIHn3kEJF_-49" value="" style="endArrow=none;html=1;rounded=0;exitX=0.75;exitY=1;exitDx=0;exitDy=0;entryX=0;entryY=0.5;entryDx=0;entryDy=0;endFill=0;" edge="1" parent="1" source="250ABMojkNrIHn3kEJF_-20" target="250ABMojkNrIHn3kEJF_-46">
          <mxGeometry width="50" height="50" relative="1" as="geometry">
            <mxPoint x="640" y="220" as="sourcePoint" />
            <mxPoint x="690" y="170" as="targetPoint" />
          </mxGeometry>
        </mxCell>
        <mxCell id="250ABMojkNrIHn3kEJF_-50" value="SKS" style="ellipse;whiteSpace=wrap;html=1;" vertex="1" parent="1">
          <mxGeometry x="540" y="310" width="120" height="60" as="geometry" />
        </mxCell>
        <mxCell id="250ABMojkNrIHn3kEJF_-51" value="" style="endArrow=none;html=1;rounded=0;exitX=0.5;exitY=1;exitDx=0;exitDy=0;entryX=0.5;entryY=0;entryDx=0;entryDy=0;endFill=0;" edge="1" parent="1" source="250ABMojkNrIHn3kEJF_-50" target="250ABMojkNrIHn3kEJF_-33">
          <mxGeometry width="50" height="50" relative="1" as="geometry">
            <mxPoint x="640" y="380" as="sourcePoint" />
            <mxPoint x="690" y="330" as="targetPoint" />
          </mxGeometry>
        </mxCell>
        <mxCell id="250ABMojkNrIHn3kEJF_-52" value="Jadwal" style="ellipse;whiteSpace=wrap;html=1;" vertex="1" parent="1">
          <mxGeometry x="630" y="480" width="120" height="60" as="geometry" />
        </mxCell>
        <mxCell id="250ABMojkNrIHn3kEJF_-53" value="" style="endArrow=none;html=1;rounded=0;exitX=1;exitY=1;exitDx=0;exitDy=0;endFill=0;" edge="1" parent="1" source="250ABMojkNrIHn3kEJF_-33" target="250ABMojkNrIHn3kEJF_-52">
          <mxGeometry width="50" height="50" relative="1" as="geometry">
            <mxPoint x="640" y="300" as="sourcePoint" />
            <mxPoint x="690" y="250" as="targetPoint" />
          </mxGeometry>
        </mxCell>
        <mxCell id="250ABMojkNrIHn3kEJF_-84" value="" style="endArrow=none;html=1;rounded=0;exitX=0;exitY=0.5;exitDx=0;exitDy=0;entryX=1;entryY=1;entryDx=0;entryDy=0;" edge="1" parent="1" source="250ABMojkNrIHn3kEJF_-47" target="250ABMojkNrIHn3kEJF_-37">
          <mxGeometry width="50" height="50" relative="1" as="geometry">
            <mxPoint x="680" y="340" as="sourcePoint" />
            <mxPoint x="730" y="290" as="targetPoint" />
          </mxGeometry>
        </mxCell>
        <mxCell id="250ABMojkNrIHn3kEJF_-130" value="Dosen" style="shape=table;startSize=30;container=1;collapsible=1;childLayout=tableLayout;fixedRows=1;rowLines=0;fontStyle=1;align=center;resizeLast=1;html=1;" vertex="1" parent="1">
          <mxGeometry x="340" y="620" width="180" height="150" as="geometry" />
        </mxCell>
        <mxCell id="250ABMojkNrIHn3kEJF_-131" value="" style="shape=tableRow;horizontal=0;startSize=0;swimlaneHead=0;swimlaneBody=0;fillColor=none;collapsible=0;dropTarget=0;points=[[0,0.5],[1,0.5]];portConstraint=eastwest;top=0;left=0;right=0;bottom=1;" vertex="1" parent="250ABMojkNrIHn3kEJF_-130">
          <mxGeometry y="30" width="180" height="30" as="geometry" />
        </mxCell>
        <mxCell id="250ABMojkNrIHn3kEJF_-132" value="PK" style="shape=partialRectangle;connectable=0;fillColor=none;top=0;left=0;bottom=0;right=0;fontStyle=1;overflow=hidden;whiteSpace=wrap;html=1;" vertex="1" parent="250ABMojkNrIHn3kEJF_-131">
          <mxGeometry width="30" height="30" as="geometry">
            <mxRectangle width="30" height="30" as="alternateBounds" />
          </mxGeometry>
        </mxCell>
        <mxCell id="250ABMojkNrIHn3kEJF_-133" value="NIDN" style="shape=partialRectangle;connectable=0;fillColor=none;top=0;left=0;bottom=0;right=0;align=left;spacingLeft=6;fontStyle=5;overflow=hidden;whiteSpace=wrap;html=1;" vertex="1" parent="250ABMojkNrIHn3kEJF_-131">
          <mxGeometry x="30" width="150" height="30" as="geometry">
            <mxRectangle width="150" height="30" as="alternateBounds" />
          </mxGeometry>
        </mxCell>
        <mxCell id="250ABMojkNrIHn3kEJF_-134" value="" style="shape=tableRow;horizontal=0;startSize=0;swimlaneHead=0;swimlaneBody=0;fillColor=none;collapsible=0;dropTarget=0;points=[[0,0.5],[1,0.5]];portConstraint=eastwest;top=0;left=0;right=0;bottom=0;" vertex="1" parent="250ABMojkNrIHn3kEJF_-130">
          <mxGeometry y="60" width="180" height="30" as="geometry" />
        </mxCell>
        <mxCell id="250ABMojkNrIHn3kEJF_-135" value="" style="shape=partialRectangle;connectable=0;fillColor=none;top=0;left=0;bottom=0;right=0;editable=1;overflow=hidden;whiteSpace=wrap;html=1;" vertex="1" parent="250ABMojkNrIHn3kEJF_-134">
          <mxGeometry width="30" height="30" as="geometry">
            <mxRectangle width="30" height="30" as="alternateBounds" />
          </mxGeometry>
        </mxCell>
        <mxCell id="250ABMojkNrIHn3kEJF_-136" value="Nama&amp;nbsp;" style="shape=partialRectangle;connectable=0;fillColor=none;top=0;left=0;bottom=0;right=0;align=left;spacingLeft=6;overflow=hidden;whiteSpace=wrap;html=1;" vertex="1" parent="250ABMojkNrIHn3kEJF_-134">
          <mxGeometry x="30" width="150" height="30" as="geometry">
            <mxRectangle width="150" height="30" as="alternateBounds" />
          </mxGeometry>
        </mxCell>
        <mxCell id="250ABMojkNrIHn3kEJF_-137" value="" style="shape=tableRow;horizontal=0;startSize=0;swimlaneHead=0;swimlaneBody=0;fillColor=none;collapsible=0;dropTarget=0;points=[[0,0.5],[1,0.5]];portConstraint=eastwest;top=0;left=0;right=0;bottom=0;" vertex="1" parent="250ABMojkNrIHn3kEJF_-130">
          <mxGeometry y="90" width="180" height="30" as="geometry" />
        </mxCell>
        <mxCell id="250ABMojkNrIHn3kEJF_-138" value="" style="shape=partialRectangle;connectable=0;fillColor=none;top=0;left=0;bottom=0;right=0;editable=1;overflow=hidden;whiteSpace=wrap;html=1;" vertex="1" parent="250ABMojkNrIHn3kEJF_-137">
          <mxGeometry width="30" height="30" as="geometry">
            <mxRectangle width="30" height="30" as="alternateBounds" />
          </mxGeometry>
        </mxCell>
        <mxCell id="250ABMojkNrIHn3kEJF_-139" value="Jenis Kelamin" style="shape=partialRectangle;connectable=0;fillColor=none;top=0;left=0;bottom=0;right=0;align=left;spacingLeft=6;overflow=hidden;whiteSpace=wrap;html=1;" vertex="1" parent="250ABMojkNrIHn3kEJF_-137">
          <mxGeometry x="30" width="150" height="30" as="geometry">
            <mxRectangle width="150" height="30" as="alternateBounds" />
          </mxGeometry>
        </mxCell>
        <mxCell id="250ABMojkNrIHn3kEJF_-140" value="" style="shape=tableRow;horizontal=0;startSize=0;swimlaneHead=0;swimlaneBody=0;fillColor=none;collapsible=0;dropTarget=0;points=[[0,0.5],[1,0.5]];portConstraint=eastwest;top=0;left=0;right=0;bottom=0;" vertex="1" parent="250ABMojkNrIHn3kEJF_-130">
          <mxGeometry y="120" width="180" height="30" as="geometry" />
        </mxCell>
        <mxCell id="250ABMojkNrIHn3kEJF_-141" value="" style="shape=partialRectangle;connectable=0;fillColor=none;top=0;left=0;bottom=0;right=0;editable=1;overflow=hidden;whiteSpace=wrap;html=1;" vertex="1" parent="250ABMojkNrIHn3kEJF_-140">
          <mxGeometry width="30" height="30" as="geometry">
            <mxRectangle width="30" height="30" as="alternateBounds" />
          </mxGeometry>
        </mxCell>
        <mxCell id="250ABMojkNrIHn3kEJF_-142" value="" style="shape=partialRectangle;connectable=0;fillColor=none;top=0;left=0;bottom=0;right=0;align=left;spacingLeft=6;overflow=hidden;whiteSpace=wrap;html=1;" vertex="1" parent="250ABMojkNrIHn3kEJF_-140">
          <mxGeometry x="30" width="150" height="30" as="geometry">
            <mxRectangle width="150" height="30" as="alternateBounds" />
          </mxGeometry>
        </mxCell>
        <mxCell id="250ABMojkNrIHn3kEJF_-143" value="Mahasiswa" style="shape=table;startSize=30;container=1;collapsible=1;childLayout=tableLayout;fixedRows=1;rowLines=0;fontStyle=1;align=center;resizeLast=1;html=1;" vertex="1" parent="1">
          <mxGeometry x="630" y="630" width="180" height="240" as="geometry" />
        </mxCell>
        <mxCell id="250ABMojkNrIHn3kEJF_-144" value="" style="shape=tableRow;horizontal=0;startSize=0;swimlaneHead=0;swimlaneBody=0;fillColor=none;collapsible=0;dropTarget=0;points=[[0,0.5],[1,0.5]];portConstraint=eastwest;top=0;left=0;right=0;bottom=1;" vertex="1" parent="250ABMojkNrIHn3kEJF_-143">
          <mxGeometry y="30" width="180" height="30" as="geometry" />
        </mxCell>
        <mxCell id="250ABMojkNrIHn3kEJF_-145" value="PK" style="shape=partialRectangle;connectable=0;fillColor=none;top=0;left=0;bottom=0;right=0;fontStyle=1;overflow=hidden;whiteSpace=wrap;html=1;" vertex="1" parent="250ABMojkNrIHn3kEJF_-144">
          <mxGeometry width="30" height="30" as="geometry">
            <mxRectangle width="30" height="30" as="alternateBounds" />
          </mxGeometry>
        </mxCell>
        <mxCell id="250ABMojkNrIHn3kEJF_-146" value="NPM" style="shape=partialRectangle;connectable=0;fillColor=none;top=0;left=0;bottom=0;right=0;align=left;spacingLeft=6;fontStyle=5;overflow=hidden;whiteSpace=wrap;html=1;" vertex="1" parent="250ABMojkNrIHn3kEJF_-144">
          <mxGeometry x="30" width="150" height="30" as="geometry">
            <mxRectangle width="150" height="30" as="alternateBounds" />
          </mxGeometry>
        </mxCell>
        <mxCell id="250ABMojkNrIHn3kEJF_-147" value="" style="shape=tableRow;horizontal=0;startSize=0;swimlaneHead=0;swimlaneBody=0;fillColor=none;collapsible=0;dropTarget=0;points=[[0,0.5],[1,0.5]];portConstraint=eastwest;top=0;left=0;right=0;bottom=0;" vertex="1" parent="250ABMojkNrIHn3kEJF_-143">
          <mxGeometry y="60" width="180" height="30" as="geometry" />
        </mxCell>
        <mxCell id="250ABMojkNrIHn3kEJF_-148" value="" style="shape=partialRectangle;connectable=0;fillColor=none;top=0;left=0;bottom=0;right=0;editable=1;overflow=hidden;whiteSpace=wrap;html=1;" vertex="1" parent="250ABMojkNrIHn3kEJF_-147">
          <mxGeometry width="30" height="30" as="geometry">
            <mxRectangle width="30" height="30" as="alternateBounds" />
          </mxGeometry>
        </mxCell>
        <mxCell id="250ABMojkNrIHn3kEJF_-149" value="Nama" style="shape=partialRectangle;connectable=0;fillColor=none;top=0;left=0;bottom=0;right=0;align=left;spacingLeft=6;overflow=hidden;whiteSpace=wrap;html=1;" vertex="1" parent="250ABMojkNrIHn3kEJF_-147">
          <mxGeometry x="30" width="150" height="30" as="geometry">
            <mxRectangle width="150" height="30" as="alternateBounds" />
          </mxGeometry>
        </mxCell>
        <mxCell id="250ABMojkNrIHn3kEJF_-150" value="" style="shape=tableRow;horizontal=0;startSize=0;swimlaneHead=0;swimlaneBody=0;fillColor=none;collapsible=0;dropTarget=0;points=[[0,0.5],[1,0.5]];portConstraint=eastwest;top=0;left=0;right=0;bottom=0;" vertex="1" parent="250ABMojkNrIHn3kEJF_-143">
          <mxGeometry y="90" width="180" height="30" as="geometry" />
        </mxCell>
        <mxCell id="250ABMojkNrIHn3kEJF_-151" value="" style="shape=partialRectangle;connectable=0;fillColor=none;top=0;left=0;bottom=0;right=0;editable=1;overflow=hidden;whiteSpace=wrap;html=1;" vertex="1" parent="250ABMojkNrIHn3kEJF_-150">
          <mxGeometry width="30" height="30" as="geometry">
            <mxRectangle width="30" height="30" as="alternateBounds" />
          </mxGeometry>
        </mxCell>
        <mxCell id="250ABMojkNrIHn3kEJF_-152" value="Prodi" style="shape=partialRectangle;connectable=0;fillColor=none;top=0;left=0;bottom=0;right=0;align=left;spacingLeft=6;overflow=hidden;whiteSpace=wrap;html=1;" vertex="1" parent="250ABMojkNrIHn3kEJF_-150">
          <mxGeometry x="30" width="150" height="30" as="geometry">
            <mxRectangle width="150" height="30" as="alternateBounds" />
          </mxGeometry>
        </mxCell>
        <mxCell id="250ABMojkNrIHn3kEJF_-153" value="" style="shape=tableRow;horizontal=0;startSize=0;swimlaneHead=0;swimlaneBody=0;fillColor=none;collapsible=0;dropTarget=0;points=[[0,0.5],[1,0.5]];portConstraint=eastwest;top=0;left=0;right=0;bottom=0;" vertex="1" parent="250ABMojkNrIHn3kEJF_-143">
          <mxGeometry y="120" width="180" height="30" as="geometry" />
        </mxCell>
        <mxCell id="250ABMojkNrIHn3kEJF_-154" value="" style="shape=partialRectangle;connectable=0;fillColor=none;top=0;left=0;bottom=0;right=0;editable=1;overflow=hidden;whiteSpace=wrap;html=1;" vertex="1" parent="250ABMojkNrIHn3kEJF_-153">
          <mxGeometry width="30" height="30" as="geometry">
            <mxRectangle width="30" height="30" as="alternateBounds" />
          </mxGeometry>
        </mxCell>
        <mxCell id="250ABMojkNrIHn3kEJF_-155" value="Jenis Kelamin" style="shape=partialRectangle;connectable=0;fillColor=none;top=0;left=0;bottom=0;right=0;align=left;spacingLeft=6;overflow=hidden;whiteSpace=wrap;html=1;" vertex="1" parent="250ABMojkNrIHn3kEJF_-153">
          <mxGeometry x="30" width="150" height="30" as="geometry">
            <mxRectangle width="150" height="30" as="alternateBounds" />
          </mxGeometry>
        </mxCell>
        <mxCell id="250ABMojkNrIHn3kEJF_-156" value="" style="shape=tableRow;horizontal=0;startSize=0;swimlaneHead=0;swimlaneBody=0;fillColor=none;collapsible=0;dropTarget=0;points=[[0,0.5],[1,0.5]];portConstraint=eastwest;top=0;left=0;right=0;bottom=0;" vertex="1" parent="250ABMojkNrIHn3kEJF_-143">
          <mxGeometry y="150" width="180" height="30" as="geometry" />
        </mxCell>
        <mxCell id="250ABMojkNrIHn3kEJF_-157" value="" style="shape=partialRectangle;connectable=0;fillColor=none;top=0;left=0;bottom=0;right=0;editable=1;overflow=hidden;whiteSpace=wrap;html=1;" vertex="1" parent="250ABMojkNrIHn3kEJF_-156">
          <mxGeometry width="30" height="30" as="geometry">
            <mxRectangle width="30" height="30" as="alternateBounds" />
          </mxGeometry>
        </mxCell>
        <mxCell id="250ABMojkNrIHn3kEJF_-158" value="KD DOSEN&amp;nbsp;" style="shape=partialRectangle;connectable=0;fillColor=none;top=0;left=0;bottom=0;right=0;align=left;spacingLeft=6;overflow=hidden;whiteSpace=wrap;html=1;" vertex="1" parent="250ABMojkNrIHn3kEJF_-156">
          <mxGeometry x="30" width="150" height="30" as="geometry">
            <mxRectangle width="150" height="30" as="alternateBounds" />
          </mxGeometry>
        </mxCell>
        <mxCell id="250ABMojkNrIHn3kEJF_-162" value="" style="shape=tableRow;horizontal=0;startSize=0;swimlaneHead=0;swimlaneBody=0;fillColor=none;collapsible=0;dropTarget=0;points=[[0,0.5],[1,0.5]];portConstraint=eastwest;top=0;left=0;right=0;bottom=0;" vertex="1" parent="250ABMojkNrIHn3kEJF_-143">
          <mxGeometry y="180" width="180" height="30" as="geometry" />
        </mxCell>
        <mxCell id="250ABMojkNrIHn3kEJF_-163" value="" style="shape=partialRectangle;connectable=0;fillColor=none;top=0;left=0;bottom=0;right=0;editable=1;overflow=hidden;whiteSpace=wrap;html=1;" vertex="1" parent="250ABMojkNrIHn3kEJF_-162">
          <mxGeometry width="30" height="30" as="geometry">
            <mxRectangle width="30" height="30" as="alternateBounds" />
          </mxGeometry>
        </mxCell>
        <mxCell id="250ABMojkNrIHn3kEJF_-164" value="Kelas" style="shape=partialRectangle;connectable=0;fillColor=none;top=0;left=0;bottom=0;right=0;align=left;spacingLeft=6;overflow=hidden;whiteSpace=wrap;html=1;" vertex="1" parent="250ABMojkNrIHn3kEJF_-162">
          <mxGeometry x="30" width="150" height="30" as="geometry">
            <mxRectangle width="150" height="30" as="alternateBounds" />
          </mxGeometry>
        </mxCell>
        <mxCell id="250ABMojkNrIHn3kEJF_-178" value="" style="shape=tableRow;horizontal=0;startSize=0;swimlaneHead=0;swimlaneBody=0;fillColor=none;collapsible=0;dropTarget=0;points=[[0,0.5],[1,0.5]];portConstraint=eastwest;top=0;left=0;right=0;bottom=0;" vertex="1" parent="250ABMojkNrIHn3kEJF_-143">
          <mxGeometry y="210" width="180" height="30" as="geometry" />
        </mxCell>
        <mxCell id="250ABMojkNrIHn3kEJF_-179" value="" style="shape=partialRectangle;connectable=0;fillColor=none;top=0;left=0;bottom=0;right=0;editable=1;overflow=hidden;whiteSpace=wrap;html=1;" vertex="1" parent="250ABMojkNrIHn3kEJF_-178">
          <mxGeometry width="30" height="30" as="geometry">
            <mxRectangle width="30" height="30" as="alternateBounds" />
          </mxGeometry>
        </mxCell>
        <mxCell id="250ABMojkNrIHn3kEJF_-180" value="KD_KRS" style="shape=partialRectangle;connectable=0;fillColor=none;top=0;left=0;bottom=0;right=0;align=left;spacingLeft=6;overflow=hidden;whiteSpace=wrap;html=1;" vertex="1" parent="250ABMojkNrIHn3kEJF_-178">
          <mxGeometry x="30" width="150" height="30" as="geometry">
            <mxRectangle width="150" height="30" as="alternateBounds" />
          </mxGeometry>
        </mxCell>
        <mxCell id="250ABMojkNrIHn3kEJF_-159" style="edgeStyle=orthogonalEdgeStyle;rounded=0;orthogonalLoop=1;jettySize=auto;html=1;startArrow=classic;startFill=1;" edge="1" parent="1" source="250ABMojkNrIHn3kEJF_-131" target="250ABMojkNrIHn3kEJF_-156">
          <mxGeometry relative="1" as="geometry" />
        </mxCell>
        <mxCell id="250ABMojkNrIHn3kEJF_-160" value="KELAS" style="ellipse;whiteSpace=wrap;html=1;" vertex="1" parent="1">
          <mxGeometry x="570" y="100" width="120" height="60" as="geometry" />
        </mxCell>
        <mxCell id="250ABMojkNrIHn3kEJF_-161" value="" style="endArrow=none;html=1;rounded=0;exitX=1;exitY=0.5;exitDx=0;exitDy=0;entryX=0;entryY=0.25;entryDx=0;entryDy=0;" edge="1" parent="1" source="250ABMojkNrIHn3kEJF_-160" target="250ABMojkNrIHn3kEJF_-20">
          <mxGeometry width="50" height="50" relative="1" as="geometry">
            <mxPoint x="700" y="210" as="sourcePoint" />
            <mxPoint x="750" y="160" as="targetPoint" />
          </mxGeometry>
        </mxCell>
        <mxCell id="250ABMojkNrIHn3kEJF_-165" value="KRS" style="shape=table;startSize=30;container=1;collapsible=1;childLayout=tableLayout;fixedRows=1;rowLines=0;fontStyle=1;align=center;resizeLast=1;html=1;" vertex="1" parent="1">
          <mxGeometry x="550" y="960" width="180" height="180" as="geometry" />
        </mxCell>
        <mxCell id="250ABMojkNrIHn3kEJF_-166" value="" style="shape=tableRow;horizontal=0;startSize=0;swimlaneHead=0;swimlaneBody=0;fillColor=none;collapsible=0;dropTarget=0;points=[[0,0.5],[1,0.5]];portConstraint=eastwest;top=0;left=0;right=0;bottom=1;" vertex="1" parent="250ABMojkNrIHn3kEJF_-165">
          <mxGeometry y="30" width="180" height="30" as="geometry" />
        </mxCell>
        <mxCell id="250ABMojkNrIHn3kEJF_-167" value="PK" style="shape=partialRectangle;connectable=0;fillColor=none;top=0;left=0;bottom=0;right=0;fontStyle=1;overflow=hidden;whiteSpace=wrap;html=1;" vertex="1" parent="250ABMojkNrIHn3kEJF_-166">
          <mxGeometry width="30" height="30" as="geometry">
            <mxRectangle width="30" height="30" as="alternateBounds" />
          </mxGeometry>
        </mxCell>
        <mxCell id="250ABMojkNrIHn3kEJF_-168" value="Id" style="shape=partialRectangle;connectable=0;fillColor=none;top=0;left=0;bottom=0;right=0;align=left;spacingLeft=6;fontStyle=5;overflow=hidden;whiteSpace=wrap;html=1;" vertex="1" parent="250ABMojkNrIHn3kEJF_-166">
          <mxGeometry x="30" width="150" height="30" as="geometry">
            <mxRectangle width="150" height="30" as="alternateBounds" />
          </mxGeometry>
        </mxCell>
        <mxCell id="250ABMojkNrIHn3kEJF_-169" value="" style="shape=tableRow;horizontal=0;startSize=0;swimlaneHead=0;swimlaneBody=0;fillColor=none;collapsible=0;dropTarget=0;points=[[0,0.5],[1,0.5]];portConstraint=eastwest;top=0;left=0;right=0;bottom=0;" vertex="1" parent="250ABMojkNrIHn3kEJF_-165">
          <mxGeometry y="60" width="180" height="30" as="geometry" />
        </mxCell>
        <mxCell id="250ABMojkNrIHn3kEJF_-170" value="" style="shape=partialRectangle;connectable=0;fillColor=none;top=0;left=0;bottom=0;right=0;editable=1;overflow=hidden;whiteSpace=wrap;html=1;" vertex="1" parent="250ABMojkNrIHn3kEJF_-169">
          <mxGeometry width="30" height="30" as="geometry">
            <mxRectangle width="30" height="30" as="alternateBounds" />
          </mxGeometry>
        </mxCell>
        <mxCell id="250ABMojkNrIHn3kEJF_-171" value="Kd_mahasiswa" style="shape=partialRectangle;connectable=0;fillColor=none;top=0;left=0;bottom=0;right=0;align=left;spacingLeft=6;overflow=hidden;whiteSpace=wrap;html=1;" vertex="1" parent="250ABMojkNrIHn3kEJF_-169">
          <mxGeometry x="30" width="150" height="30" as="geometry">
            <mxRectangle width="150" height="30" as="alternateBounds" />
          </mxGeometry>
        </mxCell>
        <mxCell id="250ABMojkNrIHn3kEJF_-172" value="" style="shape=tableRow;horizontal=0;startSize=0;swimlaneHead=0;swimlaneBody=0;fillColor=none;collapsible=0;dropTarget=0;points=[[0,0.5],[1,0.5]];portConstraint=eastwest;top=0;left=0;right=0;bottom=0;" vertex="1" parent="250ABMojkNrIHn3kEJF_-165">
          <mxGeometry y="90" width="180" height="30" as="geometry" />
        </mxCell>
        <mxCell id="250ABMojkNrIHn3kEJF_-173" value="" style="shape=partialRectangle;connectable=0;fillColor=none;top=0;left=0;bottom=0;right=0;editable=1;overflow=hidden;whiteSpace=wrap;html=1;" vertex="1" parent="250ABMojkNrIHn3kEJF_-172">
          <mxGeometry width="30" height="30" as="geometry">
            <mxRectangle width="30" height="30" as="alternateBounds" />
          </mxGeometry>
        </mxCell>
        <mxCell id="250ABMojkNrIHn3kEJF_-174" value="Kd_matkul" style="shape=partialRectangle;connectable=0;fillColor=none;top=0;left=0;bottom=0;right=0;align=left;spacingLeft=6;overflow=hidden;whiteSpace=wrap;html=1;" vertex="1" parent="250ABMojkNrIHn3kEJF_-172">
          <mxGeometry x="30" width="150" height="30" as="geometry">
            <mxRectangle width="150" height="30" as="alternateBounds" />
          </mxGeometry>
        </mxCell>
        <mxCell id="250ABMojkNrIHn3kEJF_-175" value="" style="shape=tableRow;horizontal=0;startSize=0;swimlaneHead=0;swimlaneBody=0;fillColor=none;collapsible=0;dropTarget=0;points=[[0,0.5],[1,0.5]];portConstraint=eastwest;top=0;left=0;right=0;bottom=0;" vertex="1" parent="250ABMojkNrIHn3kEJF_-165">
          <mxGeometry y="120" width="180" height="30" as="geometry" />
        </mxCell>
        <mxCell id="250ABMojkNrIHn3kEJF_-176" value="" style="shape=partialRectangle;connectable=0;fillColor=none;top=0;left=0;bottom=0;right=0;editable=1;overflow=hidden;whiteSpace=wrap;html=1;" vertex="1" parent="250ABMojkNrIHn3kEJF_-175">
          <mxGeometry width="30" height="30" as="geometry">
            <mxRectangle width="30" height="30" as="alternateBounds" />
          </mxGeometry>
        </mxCell>
        <mxCell id="250ABMojkNrIHn3kEJF_-177" value="" style="shape=partialRectangle;connectable=0;fillColor=none;top=0;left=0;bottom=0;right=0;align=left;spacingLeft=6;overflow=hidden;whiteSpace=wrap;html=1;" vertex="1" parent="250ABMojkNrIHn3kEJF_-175">
          <mxGeometry x="30" width="150" height="30" as="geometry">
            <mxRectangle width="150" height="30" as="alternateBounds" />
          </mxGeometry>
        </mxCell>
        <mxCell id="250ABMojkNrIHn3kEJF_-213" value="" style="shape=tableRow;horizontal=0;startSize=0;swimlaneHead=0;swimlaneBody=0;fillColor=none;collapsible=0;dropTarget=0;points=[[0,0.5],[1,0.5]];portConstraint=eastwest;top=0;left=0;right=0;bottom=0;" vertex="1" parent="250ABMojkNrIHn3kEJF_-165">
          <mxGeometry y="150" width="180" height="30" as="geometry" />
        </mxCell>
        <mxCell id="250ABMojkNrIHn3kEJF_-214" value="" style="shape=partialRectangle;connectable=0;fillColor=none;top=0;left=0;bottom=0;right=0;editable=1;overflow=hidden;whiteSpace=wrap;html=1;" vertex="1" parent="250ABMojkNrIHn3kEJF_-213">
          <mxGeometry width="30" height="30" as="geometry">
            <mxRectangle width="30" height="30" as="alternateBounds" />
          </mxGeometry>
        </mxCell>
        <mxCell id="250ABMojkNrIHn3kEJF_-215" value="" style="shape=partialRectangle;connectable=0;fillColor=none;top=0;left=0;bottom=0;right=0;align=left;spacingLeft=6;overflow=hidden;whiteSpace=wrap;html=1;" vertex="1" parent="250ABMojkNrIHn3kEJF_-213">
          <mxGeometry x="30" width="150" height="30" as="geometry">
            <mxRectangle width="150" height="30" as="alternateBounds" />
          </mxGeometry>
        </mxCell>
        <mxCell id="250ABMojkNrIHn3kEJF_-182" style="edgeStyle=orthogonalEdgeStyle;rounded=0;orthogonalLoop=1;jettySize=auto;html=1;entryX=1;entryY=0.5;entryDx=0;entryDy=0;startArrow=classic;startFill=1;endArrow=ERoneToMany;endFill=0;" edge="1" parent="1" source="250ABMojkNrIHn3kEJF_-178" target="250ABMojkNrIHn3kEJF_-166">
          <mxGeometry relative="1" as="geometry" />
        </mxCell>
        <mxCell id="250ABMojkNrIHn3kEJF_-196" value="Matkul" style="shape=table;startSize=30;container=1;collapsible=1;childLayout=tableLayout;fixedRows=1;rowLines=0;fontStyle=1;align=center;resizeLast=1;html=1;" vertex="1" parent="1">
          <mxGeometry x="310" y="1020" width="180" height="180" as="geometry" />
        </mxCell>
        <mxCell id="250ABMojkNrIHn3kEJF_-197" value="" style="shape=tableRow;horizontal=0;startSize=0;swimlaneHead=0;swimlaneBody=0;fillColor=none;collapsible=0;dropTarget=0;points=[[0,0.5],[1,0.5]];portConstraint=eastwest;top=0;left=0;right=0;bottom=1;" vertex="1" parent="250ABMojkNrIHn3kEJF_-196">
          <mxGeometry y="30" width="180" height="30" as="geometry" />
        </mxCell>
        <mxCell id="250ABMojkNrIHn3kEJF_-198" value="PK" style="shape=partialRectangle;connectable=0;fillColor=none;top=0;left=0;bottom=0;right=0;fontStyle=1;overflow=hidden;whiteSpace=wrap;html=1;" vertex="1" parent="250ABMojkNrIHn3kEJF_-197">
          <mxGeometry width="30" height="30" as="geometry">
            <mxRectangle width="30" height="30" as="alternateBounds" />
          </mxGeometry>
        </mxCell>
        <mxCell id="250ABMojkNrIHn3kEJF_-199" value="MK_ID" style="shape=partialRectangle;connectable=0;fillColor=none;top=0;left=0;bottom=0;right=0;align=left;spacingLeft=6;fontStyle=5;overflow=hidden;whiteSpace=wrap;html=1;" vertex="1" parent="250ABMojkNrIHn3kEJF_-197">
          <mxGeometry x="30" width="150" height="30" as="geometry">
            <mxRectangle width="150" height="30" as="alternateBounds" />
          </mxGeometry>
        </mxCell>
        <mxCell id="250ABMojkNrIHn3kEJF_-200" value="" style="shape=tableRow;horizontal=0;startSize=0;swimlaneHead=0;swimlaneBody=0;fillColor=none;collapsible=0;dropTarget=0;points=[[0,0.5],[1,0.5]];portConstraint=eastwest;top=0;left=0;right=0;bottom=0;" vertex="1" parent="250ABMojkNrIHn3kEJF_-196">
          <mxGeometry y="60" width="180" height="30" as="geometry" />
        </mxCell>
        <mxCell id="250ABMojkNrIHn3kEJF_-201" value="" style="shape=partialRectangle;connectable=0;fillColor=none;top=0;left=0;bottom=0;right=0;editable=1;overflow=hidden;whiteSpace=wrap;html=1;" vertex="1" parent="250ABMojkNrIHn3kEJF_-200">
          <mxGeometry width="30" height="30" as="geometry">
            <mxRectangle width="30" height="30" as="alternateBounds" />
          </mxGeometry>
        </mxCell>
        <mxCell id="250ABMojkNrIHn3kEJF_-202" value="Nama" style="shape=partialRectangle;connectable=0;fillColor=none;top=0;left=0;bottom=0;right=0;align=left;spacingLeft=6;overflow=hidden;whiteSpace=wrap;html=1;" vertex="1" parent="250ABMojkNrIHn3kEJF_-200">
          <mxGeometry x="30" width="150" height="30" as="geometry">
            <mxRectangle width="150" height="30" as="alternateBounds" />
          </mxGeometry>
        </mxCell>
        <mxCell id="250ABMojkNrIHn3kEJF_-203" value="" style="shape=tableRow;horizontal=0;startSize=0;swimlaneHead=0;swimlaneBody=0;fillColor=none;collapsible=0;dropTarget=0;points=[[0,0.5],[1,0.5]];portConstraint=eastwest;top=0;left=0;right=0;bottom=0;" vertex="1" parent="250ABMojkNrIHn3kEJF_-196">
          <mxGeometry y="90" width="180" height="30" as="geometry" />
        </mxCell>
        <mxCell id="250ABMojkNrIHn3kEJF_-204" value="" style="shape=partialRectangle;connectable=0;fillColor=none;top=0;left=0;bottom=0;right=0;editable=1;overflow=hidden;whiteSpace=wrap;html=1;" vertex="1" parent="250ABMojkNrIHn3kEJF_-203">
          <mxGeometry width="30" height="30" as="geometry">
            <mxRectangle width="30" height="30" as="alternateBounds" />
          </mxGeometry>
        </mxCell>
        <mxCell id="250ABMojkNrIHn3kEJF_-205" value="SKS" style="shape=partialRectangle;connectable=0;fillColor=none;top=0;left=0;bottom=0;right=0;align=left;spacingLeft=6;overflow=hidden;whiteSpace=wrap;html=1;" vertex="1" parent="250ABMojkNrIHn3kEJF_-203">
          <mxGeometry x="30" width="150" height="30" as="geometry">
            <mxRectangle width="150" height="30" as="alternateBounds" />
          </mxGeometry>
        </mxCell>
        <mxCell id="250ABMojkNrIHn3kEJF_-206" value="" style="shape=tableRow;horizontal=0;startSize=0;swimlaneHead=0;swimlaneBody=0;fillColor=none;collapsible=0;dropTarget=0;points=[[0,0.5],[1,0.5]];portConstraint=eastwest;top=0;left=0;right=0;bottom=0;" vertex="1" parent="250ABMojkNrIHn3kEJF_-196">
          <mxGeometry y="120" width="180" height="30" as="geometry" />
        </mxCell>
        <mxCell id="250ABMojkNrIHn3kEJF_-207" value="" style="shape=partialRectangle;connectable=0;fillColor=none;top=0;left=0;bottom=0;right=0;editable=1;overflow=hidden;whiteSpace=wrap;html=1;" vertex="1" parent="250ABMojkNrIHn3kEJF_-206">
          <mxGeometry width="30" height="30" as="geometry">
            <mxRectangle width="30" height="30" as="alternateBounds" />
          </mxGeometry>
        </mxCell>
        <mxCell id="250ABMojkNrIHn3kEJF_-208" value="JADWAL" style="shape=partialRectangle;connectable=0;fillColor=none;top=0;left=0;bottom=0;right=0;align=left;spacingLeft=6;overflow=hidden;whiteSpace=wrap;html=1;" vertex="1" parent="250ABMojkNrIHn3kEJF_-206">
          <mxGeometry x="30" width="150" height="30" as="geometry">
            <mxRectangle width="150" height="30" as="alternateBounds" />
          </mxGeometry>
        </mxCell>
        <mxCell id="250ABMojkNrIHn3kEJF_-209" value="" style="shape=tableRow;horizontal=0;startSize=0;swimlaneHead=0;swimlaneBody=0;fillColor=none;collapsible=0;dropTarget=0;points=[[0,0.5],[1,0.5]];portConstraint=eastwest;top=0;left=0;right=0;bottom=0;" vertex="1" parent="250ABMojkNrIHn3kEJF_-196">
          <mxGeometry y="150" width="180" height="30" as="geometry" />
        </mxCell>
        <mxCell id="250ABMojkNrIHn3kEJF_-210" value="" style="shape=partialRectangle;connectable=0;fillColor=none;top=0;left=0;bottom=0;right=0;editable=1;overflow=hidden;whiteSpace=wrap;html=1;" vertex="1" parent="250ABMojkNrIHn3kEJF_-209">
          <mxGeometry width="30" height="30" as="geometry">
            <mxRectangle width="30" height="30" as="alternateBounds" />
          </mxGeometry>
        </mxCell>
        <mxCell id="250ABMojkNrIHn3kEJF_-211" value="KRS_ID" style="shape=partialRectangle;connectable=0;fillColor=none;top=0;left=0;bottom=0;right=0;align=left;spacingLeft=6;overflow=hidden;whiteSpace=wrap;html=1;" vertex="1" parent="250ABMojkNrIHn3kEJF_-209">
          <mxGeometry x="30" width="150" height="30" as="geometry">
            <mxRectangle width="150" height="30" as="alternateBounds" />
          </mxGeometry>
        </mxCell>
        <mxCell id="250ABMojkNrIHn3kEJF_-212" style="edgeStyle=orthogonalEdgeStyle;rounded=0;orthogonalLoop=1;jettySize=auto;html=1;entryX=1;entryY=0.5;entryDx=0;entryDy=0;" edge="1" parent="1" source="250ABMojkNrIHn3kEJF_-172" target="250ABMojkNrIHn3kEJF_-197">
          <mxGeometry relative="1" as="geometry" />
        </mxCell>
      </root>
    </mxGraphModel>
  </diagram>
</mxfile>
